<svg xmlns="http://www.w3.org/2000/svg" xmlns:svg="http://www.w3.org/2000/svg" id="svg3632" width="180.083" height="68.191" version="1.1" viewBox="0 0 168.828 63.929"><metadata id="metadata3637"/><g id="layer1" transform="translate(30.128218,-383.25485)"><path d="m -20.538661,393.06685 c -3.8975,3.89 -6.04625,9.145 -6.04625,14.80875 0,5.595 2.11125,10.82375 5.94,14.72375 4.035,4.09625 9.7225,6.3575 16.0225003,6.3575 3.71624999,0 7.16375,-0.71125 10.23375,-2.125 l 0.195,-0.0887 0,-7.38125 -0.53625,0.415 c -2.71375,2.07875 -6.08875001,3.1725 -9.775,3.1725 -4.27625,0 -8.1950003,-1.52375 -11.0250003,-4.2975 -2.825,-2.77125 -4.38125,-6.595 -4.38125,-10.77625 0,-4.205 1.55625,-8.03625 4.38125,-10.79875 2.82375,-2.755 6.7387503,-4.2725 11.0250003,-4.2725 3.68999999,0 7.06625,1.08875 9.775,3.155 l 0.53625,0.4075 0,-7.39625 -0.195,-0.0875 c -3.04625,-1.38625 -6.45000001,-2.085 -10.11625,-2.085 -6.2862503,0 -11.9787503,2.22625 -16.0337503,6.26875" style="fill:#b6d23f;fill-opacity:1;fill-rule:nonzero;stroke:none" id="path3578"/><path d="m 12.971339,411.64185 c 0.78375,-3.87625 3.1175,-5.92625 6.78625,-5.92625 3.41,0 5.58,2.2125 5.87375,5.92625 l -12.66,0 z m 18.585,3.83875 c 0,-4.88 -1.085,-8.665 -3.22,-11.2475 -2.06125,-2.49375 -4.99,-3.76 -8.70125,-3.76 -3.72,0 -6.9175,1.3375 -9.24625,3.85125 -2.3324997,2.51625 -3.5624997,5.98875 -3.5624997,10.025 0,3.85125 1.2175,7.43 3.4337497,10.08125 2.43375,2.91125 5.84625,4.455 9.85125,4.455 4.3275,0 7.35875,-0.9 10.8175,-3.20375 l 0.15375,-0.10125 0,-5.90875 -0.52,0.33875 c -3.29375,2.155 -6.20125,3.1575 -9.14375,3.1575 -4.7975,0 -7.67375,-2.47625 -8.5675,-7.35125 0.77375,0 18.705,0 18.705,0 l 0,-0.33625" style="fill:#b6d23f;fill-opacity:1;fill-rule:nonzero;stroke:none" id="path3580"/><path d="m 62.221339,411.64185 c 0.77875,-3.87625 3.11625,-5.92625 6.78,-5.92625 3.4125,0 5.58625,2.2125 5.8725,5.92625 l -12.6525,0 z m 18.58,3.83875 c 0,-4.88 -1.085,-8.665 -3.2175,-11.2475 -2.06375,-2.49375 -4.99,-3.76 -8.70375,-3.76 -3.7175,0 -6.91875,1.3375 -9.2475,3.85125 -2.33,2.51625 -3.56125,5.98875 -3.56125,10.025 0,3.85125 1.2175,7.43 3.43,10.08125 2.445,2.91125 5.85,4.455 9.85375,4.455 4.32625,0 7.36125,-0.9 10.8225,-3.20375 l 0.14625,-0.10125 0,-5.90875 -0.51875,0.33875 c -3.29125,2.155 -6.1975,3.1575 -9.1425,3.1575 -4.79875,0 -7.6725,-2.47625 -8.56875,-7.35125 0.77375,0 18.7075,0 18.7075,0 l 0,-0.33625" style="fill:#b6d23f;fill-opacity:1;fill-rule:nonzero;stroke:none" id="path3582"/><path d="m 107.40259,411.64185 c 0.78,-3.87625 3.1225,-5.92625 6.78375,-5.92625 3.41375,0 5.58875,2.2125 5.875,5.92625 l -12.65875,0 z m 18.58625,3.83875 c 0,-4.88 -1.08375,-8.665 -3.2225,-11.2475 -2.055,-2.49375 -4.98875,-3.76 -8.7,-3.76 -3.71875,0 -6.92,1.3375 -9.245,3.85125 -2.33625,2.51625 -3.56625,5.98875 -3.56625,10.025 0,3.85125 1.2175,7.43 3.435,10.08125 2.43875,2.91125 5.84125,4.455 9.85125,4.455 4.32125,0 7.3625,-0.9 10.81625,-3.20375 l 0.1525,-0.10125 0,-5.90875 -0.51875,0.33875 c -3.29125,2.155 -6.19875,3.1575 -9.14125,3.1575 -4.8,0 -7.6775,-2.47625 -8.56375,-7.35125 0.76625,0 18.7025,0 18.7025,0 l 0,-0.33625" style="fill:#b6d23f;fill-opacity:1;fill-rule:nonzero;stroke:none" id="path3584"/><path d="m 90.272589,394.9206 -10.25375,10.005 0,1.08125 c 0,0 4.1625,0 4.7425,0 0,0.63875 0,14.07125 0,14.07125 0,5.48875 3.5325,8.90875 9.20625,8.90875 1.8675,0 4.82,-0.82125 6.725001,-1.86625 l 0.17875,-0.095 0,-5.84375 -0.5125,0.31125 c -2.155001,1.3175 -4.106251,1.96 -5.962501,1.96 -1.64375,0 -3.55625,-0.99875 -3.55625,-3.80125 0,0 0,-13.00625 0,-13.645 0.62,0 8.63375,0 8.63375,0 l 0,-5.53 c 0,0 -8.01375,0 -8.63375,0 0,-0.5925 0,-6.11375 0,-6.11375 l -0.5675,0.5575" style="fill:#b6d23f;fill-opacity:1;fill-rule:nonzero;stroke:none" id="path3586"/><path d="m 134.81509,387.33435 -5.615,0 0,41.5475 5.95625,0 0,-41.5475 -0.34125,0" style="fill:#b6d23f;fill-opacity:1;fill-rule:nonzero;stroke:none" id="path3588"/><path d="m 3.0325893,405.68185 c -9.02,-3.27875 -14.2462503,0.65 -14.2462503,0.65 l -0.26,0.23625 -0.24,0.30125 c -0.94625,1.43 1.08,2.64125 1.08,2.64125 1.2262503,0.7625 1.3512503,1.22625 1.3512503,1.22625 0.34625,0.6775 -1.1862503,3.83375 -1.1862503,3.83375 -1.19875,3.02125 -0.90875,3.70875 -0.90875,3.70875 0.38875,1.3975 1.3862503,0.10875 1.3862503,0.10875 0.2775,-0.27875 3.15125,-4.195 3.15125,-4.195 0.37,-0.45125 0.535,-0.5775 0.64,-0.5625 0.07125,0 0.1925,0.20625 0.1925,0.20625 1.545,3.37375 3.9425,5.18375 3.9425,5.18375 0.56875,0.47 0.79875,0.4975 0.79875,0.4975 1.52374999,0.29125 0.47499999,-2.6625 0.47499999,-2.6625 -2.34124999,-6 -2.12249999,-6.6 -2.12249999,-6.6 -0.0087,-1.52 1.2175,-1.96875 1.2175,-1.96875 0.495,-0.2775 4.06,-0.80875 4.06,-0.80875 1.06,-0.305 1.09625,-0.875 1.09625,-0.875 0.20625,-0.5575 -0.4275,-0.92125 -0.4275,-0.92125 z m -9.345,-1.86 c 1.0925,0.25875 2.4025,-0.02 3.50125,-0.755 l 0.03375,-0.02 0.02875,-0.03 0.81875,-0.69 0.02875,-0.0225 0.01875,-0.025 c 0.5575,-0.56875 0.94749999,-1.265 1.12874999,-2.025 0.1925,-0.81375 0.10625,-1.60125 -0.2425,-2.22375 -0.36999999,-0.63875 -0.99749999,-1.0875 -1.82749999,-1.285 -1.0525,-0.25625 -2.2725,-0.0175 -3.34125,0.65375 -1.12,0.69125 -1.91125,1.73625 -2.1825,2.885 -0.23375,0.93375 -0.08125,1.815 0.42,2.49875 0.3825,0.4975 0.9675,0.88 1.615,1.03875" style="fill:#121a20;fill-opacity:1;fill-rule:nonzero;stroke:none" id="path3590"/><path d="m 43.618839,415.5156 c -3.16625,0 -5.2925,-1.9275 -5.2925,-4.795 0,-2.56 2.3975,-4.72875 5.23,-4.72875 2.77125,0 5.11125,2.11125 5.11125,4.6025 0,2.89875 -2.0775,4.92125 -5.04875,4.92125 z m -1.50125,15.1175 c 3.2925,0 8.86,0.88125 8.86,4.16875 0,2.33375 -2.7725,3.73125 -7.42125,3.73125 -3.41125,0 -7.48125,-0.6925 -7.48125,-3.9825 0,-2.31 2.485,-3.9175 6.0425,-3.9175 z m 15.03375,-30.13 -11.905,0 c -7.76625,0 -12.5925,3.845 -12.5925,10.0325 0,2.12125 0.5225,3.955 1.56,5.445 0.97375,1.3775 2.37625,2.50625 4.16375,3.37125 -2.43625,0.77125 -3.97375,2.33375 -3.97375,4.1275 0,1.22875 0.75,2.33375 2.34125,3.43625 -4.48875,1.28625 -6.5925,3.805 -6.5925,7.88625 0,2.51125 1.345,4.775 3.785,6.38125 2.4025,1.5875 5.775,2.4575 9.49875,2.4575 8.51,0 13.5925,-3.47125 13.5925,-9.27875 0,-2.9575 -1.45875,-6.7725 -8.40375,-8.15 -4.98125,-0.99375 -8.29375,-1.93875 -8.29375,-3.29375 0,-1.31125 1.43625,-1.6175 3.98375,-2.06375 2.385,-0.41625 5.35,-0.935 7.3075,-3.0275 1.315,-1.31 2.7175,-4.05625 2.7175,-6.54125 0,-2.24375 -0.67875,-3.83625 -2.5,-5.79625 1.16625,0 5.31125,0 5.31125,0 l 0,-4.98625" style="fill:#b6d23f;fill-opacity:1;fill-rule:nonzero;stroke:none" id="path3592"/></g></svg>