<svg xmlns="http://www.w3.org/2000/svg" xmlns:xlink="http://www.w3.org/1999/xlink" id="Layer_1" width="300" height="155" x="0" y="0" enable-background="new 0 0 300 155" version="1.1" viewBox="0 0 300 155" xml:space="preserve"><g><g><path fill="#0059A5" d="M66.631,68.662H56.607l3.525-25.275H40.225l-0.919,6.554c4.297,3.267,7.078,8.43,7.078,14.231 c0,7.576-4.742,14.061-11.412,16.655l-1.71,12.191l0.467-0.031l1.05,0.448l2.349,3.392l0.412,0.305l1.877-1.752l0.381-0.313 l3.064-2.163l0.339-0.312l2.356-1.476l0.292-0.348l1.545-0.662l0.418-0.231l3.161-1.216l2.097-0.313l0.497,0.004l0.654,0.087 l0.837,0.884l4.94,0.983l0.347-0.198l1.938-2.928l2.257-2.822l4.47-4.884l2.893-2.491l1.243-0.643l2.03,0.05l2.465-0.904 l-0.027-1.591l6.086-2.991l2.262-2.552l0.26-0.42l0.471-0.514l3.372-24.031H70.158L66.631,68.662L66.631,68.662"/></g><g><path fill="#4574B8" d="M82.468,97.53c-3.33,2.994-6.225,4.454-9.05,5.874c-2.558,1.286-5.175,2.607-8.182,5.093H80.93 L82.468,97.53"/><path fill="#4574B8" d="M52.282,99.504c-2.783,0.717-5.91,1.895-10.395,4.631c-2.609,1.592-4.625,3.02-6.31,4.362h15.419 l0.234-1.633L52.282,99.504"/><path fill="#4574B8" d="M86.326,70.033l-1.768,1.995l-5.555,2.729l0.069,1.682l-3.666,1.344l-1.954-0.049l-0.052,0.023 l-0.778,0.413l-2.67,2.324l-4.603,5.056l-1.96,2.468l-2.067,3.127l-1.082,0.622l-5.889-1.17l-0.8-0.852l-0.118-0.014h-0.311 L51.26,90.02l-2.895,1.128l-0.388,0.217l-1.274,0.548l-0.223,0.264l-2.477,1.548l-0.292,0.279l-3.093,2.182l-0.286,0.237 l-2.692,2.511l-1.526-1.128l-2.25-3.251l-0.378-0.16l-0.423,0.026l-1.975,14.076H33.4c1.976-1.688,4.413-3.502,7.763-5.547 c4.912-2.997,8.342-4.203,11.331-4.927l0.556-3.892l0.194-1.358h10.021l-0.119,0.835l-0.251,1.769 c1.894-0.753,4.047-1.815,6.669-3.413c8.353-5.101,12.014-8.449,15.563-13.37L86.326,70.033"/><path fill="#4574B8" d="M84.733,81.393c-3.238,4.008-7.096,7.268-14.446,11.757c-3.021,1.842-5.476,3.003-7.617,3.795 l-1.65,11.553l2.095-0.001c3.637-3.287,6.699-4.836,9.68-6.332c3.213-1.618,6.288-3.164,9.983-6.827l1.297-9.245L84.733,81.393"/></g><g><path fill="#0059A5" d="M39.063,51.67L39.063,51.67c-0.497-0.419-1.02-0.808-1.563-1.167c-2.582-1.704-5.669-2.7-8.987-2.7 c-9.024,0-16.366,7.342-16.366,16.368c0,9.024,7.342,16.366,16.366,16.366c1.7,0,3.336-0.267,4.878-0.751 c0.624-0.196,1.233-0.424,1.822-0.689h0.001c5.692-2.566,9.667-8.289,9.667-14.925C44.881,59.163,42.618,54.675,39.063,51.67"/><path fill="#0059A5" d="M215.67,97.912c-0.781,0.122-1.647,0.217-2.589,0.291c-0.936,0.073-1.991,0.113-3.162,0.113 c-3.347,0-5.018-1.381-5.018-4.143c0-0.392,0.034-0.793,0.109-1.205l3.622-25.974h-10.619l-3.628,25.974 c-0.168,1.221-0.252,2.377-0.252,3.476c0,8.035,4.781,12.054,14.351,12.054c7.771,0,13.328-0.869,16.67-2.602l5.455-38.902 h-10.617L215.67,97.912z"/><polygon fill="#0059A5" points="232.114 108.498 242.732 108.498 250.354 54.395 239.364 56.888"/><path fill="#0059A5" d="M151.005,66.996c-7.674,0-13.212,0.781-16.635,2.343l-5.491,39.159h10.623l4.359-30.916 c0.753-0.118,1.603-0.218,2.544-0.291c0.938-0.074,1.995-0.111,3.167-0.111c1.022,0,2.392,0.234,4.101,0.696l1.477-10.525 C153.591,67.119,152.208,66.996,151.005,66.996"/><path fill="#0059A5" d="M175.745,97.913c-0.783,0.123-1.646,0.217-2.585,0.291c-0.938,0.074-1.997,0.111-3.166,0.111 c-3.492,0-5.241-0.932-5.241-2.784l0.042-0.476c0.365-2.639,4.327-3.96,11.9-3.96L175.745,97.913z M174.386,66.996 c-3.342,0-7.039,0.63-11.079,1.867l-1.441,10.293c4.288-1.317,7.991-1.977,11.093-1.977c3.468,0,5.204,1.05,5.204,3.148 l-0.037,0.589c-14.65,0-22.634,4.71-23.953,14.139c-0.121,0.931-0.185,1.817-0.185,2.669c0,7.183,4.86,10.773,14.58,10.773 c7.763,0,13.317-0.871,16.659-2.601l3.299-23.37c0.172-1.221,0.261-2.359,0.261-3.406 C188.786,71.04,183.981,66.996,174.386,66.996"/><path fill="#0059A5" d="M115.62,83.004h-12.819c0.539-3.883,3.065-5.824,7.581-5.824c3.566,0,5.347,1.514,5.347,4.539 C115.729,82.114,115.694,82.541,115.62,83.004 M115.906,67.349l2.119-3.774h-11.887l-1.381,4.395 c-7.287,2.208-11.636,8.208-13.02,18.04l-0.477,3.479c-0.244,1.783-0.363,3.442-0.363,4.981c0,9.349,4.664,14.029,13.99,14.029 c5.231,0,9.581-0.644,13.052-1.924l1.453-10.352c-4.054,1.396-8.416,2.094-13.077,2.094c-3.344,0-5.019-1.42-5.019-4.252 c0-0.391,0.035-0.806,0.111-1.245h19.962c2.322,0,3.796-2.272,4.426-6.811c0.247-1.758,0.373-3.398,0.373-4.907 C126.169,73.156,122.738,68.582,115.906,67.349"/><path fill="#0059A5" d="M272,66.996l1.761-12.602l-10.954,2.495l-1.431,10.107h-5.492l-1.429,10.184h5.499l-2.24,15.791 c-0.192,1.338-0.292,2.596-0.292,3.768c0,7.842,4.199,11.76,12.598,11.76c2.195,0,4.319-0.429,6.377-1.264l1.477-10.471 l-0.012-0.062c-2.855,1.074-4.994,1.613-6.41,1.613c-2.149,0-3.225-1.258-3.225-3.774c0-0.487,0.036-1.01,0.11-1.57l2.234-15.791 h10.044l1.425-10.184H272z"/></g><g><path fill="#E53212" d="M31.411,136.685v-14.892h2.915v12.298H41.1v2.594H31.411z"/><path fill="#E53212" d="M45.021,132.084c0,1.4,0.859,2.425,2.39,2.425c1.196,0,1.783-0.335,2.475-1.024l1.657,1.609 c-1.111,1.109-2.182,1.716-4.152,1.716c-2.58,0-5.054-1.171-5.054-5.584c0-3.556,1.929-5.563,4.76-5.563 c3.041,0,4.761,2.217,4.761,5.208v1.214H45.021z M48.921,129.05c-0.293-0.647-0.902-1.129-1.825-1.129 c-0.923,0-1.531,0.481-1.824,1.129c-0.168,0.398-0.231,0.69-0.251,1.173h4.152C49.152,129.74,49.089,129.448,48.921,129.05z"/><path fill="#E53212" d="M61.921,136.685c-2.223,0-3.167-1.569-3.167-3.117v-5.396h-1.154v-2.07h1.154v-3.221h2.726v3.221h1.93 v2.07h-1.93v5.229c0,0.627,0.294,0.983,0.944,0.983h0.985v2.301H61.921z"/><path fill="#E53212" d="M71.462,128.758c-0.419-0.419-0.775-0.647-1.446-0.647c-0.839,0-1.762,0.627-1.762,2.007v6.567h-2.726 v-10.896h2.663v1.045c0.524-0.627,1.573-1.172,2.748-1.172c1.07,0,1.825,0.272,2.58,1.025L71.462,128.758z"/><path fill="#E53212" d="M76.201,132.084c0,1.4,0.86,2.425,2.391,2.425c1.195,0,1.783-0.335,2.474-1.024l1.657,1.609 c-1.112,1.109-2.181,1.716-4.152,1.716c-2.58,0-5.054-1.171-5.054-5.584c0-3.556,1.929-5.563,4.76-5.563 c3.041,0,4.761,2.217,4.761,5.208v1.214H76.201z M77.669,124.053l-2.391-3.556h2.873l1.342,3.556H77.669z M80.102,129.05 c-0.294-0.647-0.902-1.129-1.825-1.129c-0.922,0-1.53,0.481-1.824,1.129c-0.168,0.398-0.23,0.69-0.252,1.173h4.153 C80.333,129.74,80.27,129.448,80.102,129.05z"/><path fill="#E53212" d="M88.783,136.81c-1.72,0-3.271-0.188-4.656-1.568l1.783-1.777c0.902,0.899,2.076,1.024,2.915,1.024 c0.943,0,1.929-0.314,1.929-1.13c0-0.544-0.293-0.92-1.153-1.004l-1.72-0.167c-1.971-0.189-3.188-1.045-3.188-3.054 c0-2.258,1.992-3.472,4.215-3.472c1.699,0,3.125,0.294,4.173,1.275l-1.678,1.694c-0.629-0.563-1.594-0.731-2.537-0.731 c-1.091,0-1.552,0.502-1.552,1.046c0,0.396,0.168,0.857,1.133,0.94l1.72,0.168c2.16,0.209,3.25,1.358,3.25,3.199 C93.417,135.659,91.362,136.81,88.783,136.81z"/><path fill="#E53212" d="M106.104,136.685v-6.651c0-1.442-0.923-1.923-1.783-1.923c-0.86,0-1.762,0.501-1.762,1.923v6.651h-2.727 v-14.892h2.727v4.999c0.734-0.753,1.657-1.13,2.621-1.13c2.391,0,3.649,1.674,3.649,3.974v7.049H106.104z"/><path fill="#E53212" d="M117.007,136.685v-0.941c-0.734,0.732-1.426,1.045-2.685,1.045c-1.238,0-2.139-0.313-2.79-0.961 c-0.587-0.607-0.902-1.485-0.902-2.447c0-1.736,1.195-3.157,3.733-3.157h2.58v-0.545c0-1.191-0.587-1.715-2.035-1.715 c-1.048,0-1.531,0.251-2.097,0.899l-1.741-1.693c1.07-1.172,2.118-1.507,3.942-1.507c3.062,0,4.656,1.297,4.656,3.848v7.175 H117.007z M116.944,132.084h-2.16c-0.985,0-1.531,0.46-1.531,1.232c0,0.753,0.504,1.256,1.573,1.256 c0.755,0,1.237-0.063,1.719-0.523c0.294-0.272,0.399-0.711,0.399-1.38V132.084z"/><path fill="#E53212" d="M128.519,136.685v-1.005c-0.713,0.754-1.72,1.13-2.727,1.13c-1.09,0-1.971-0.355-2.58-0.963 c-0.88-0.878-1.111-1.902-1.111-3.094v-6.964h2.726v6.587c0,1.484,0.944,1.987,1.804,1.987c0.86,0,1.825-0.503,1.825-1.987v-6.587 h2.727v10.896H128.519z"/><path fill="#E53212" d="M137.284,136.685c-2.223,0-3.167-1.569-3.167-3.117v-5.396h-1.154v-2.07h1.154v-3.221h2.726v3.221h1.929 v2.07h-1.929v5.229c0,0.627,0.293,0.983,0.944,0.983h0.985v2.301H137.284z"/><path fill="#E53212" d="M151.418,136.685v-1.025c-0.755,0.837-1.553,1.15-2.706,1.15c-1.069,0-2.076-0.376-2.684-0.982 c-1.091-1.088-1.112-2.971-1.112-4.602c0-1.632,0.021-3.493,1.112-4.581c0.608-0.605,1.594-0.982,2.663-0.982 c1.111,0,1.951,0.294,2.664,1.088v-4.957h2.727v14.892H151.418z M149.488,128.11c-1.636,0-1.846,1.338-1.846,3.115 c0,1.778,0.209,3.138,1.846,3.138c1.636,0,1.866-1.359,1.866-3.138C151.354,129.448,151.124,128.11,149.488,128.11z"/><path fill="#E53212" d="M158.924,132.084c0,1.4,0.859,2.425,2.391,2.425c1.195,0,1.782-0.335,2.475-1.024l1.656,1.609 c-1.111,1.109-2.18,1.716-4.151,1.716c-2.58,0-5.055-1.171-5.055-5.584c0-3.556,1.929-5.563,4.761-5.563 c3.04,0,4.761,2.217,4.761,5.208v1.214H158.924z M162.824,129.05c-0.293-0.647-0.901-1.129-1.824-1.129s-1.531,0.481-1.825,1.129 c-0.167,0.398-0.23,0.69-0.251,1.173h4.151C163.055,129.74,162.992,129.448,162.824,129.05z M161.734,124.053h-1.824l1.341-3.556 h2.873L161.734,124.053z"/><path fill="#E53212" d="M175.951,135.827c-0.608,0.606-1.595,0.982-2.664,0.982c-1.152,0-1.971-0.313-2.726-1.15v1.025h-2.643 v-14.892h2.727v4.957c0.713-0.794,1.531-1.088,2.642-1.088c1.069,0,2.056,0.377,2.664,0.982c1.09,1.088,1.111,2.949,1.111,4.581 C177.063,132.856,177.041,134.739,175.951,135.827z M172.49,128.11c-1.635,0-1.845,1.338-1.845,3.115 c0,1.778,0.21,3.138,1.845,3.138c1.637,0,1.846-1.359,1.846-3.138C174.336,129.448,174.127,128.11,172.49,128.11z"/><path fill="#E53212" d="M179.264,123.927v-2.218h2.789v2.218H179.264z M179.306,136.685v-10.896h2.727v10.896H179.306z"/><path fill="#E53212" d="M188.134,136.685c-2.224,0-3.167-1.569-3.167-3.117v-5.396h-1.152v-2.07h1.152v-3.221h2.727v3.221h1.93 v2.07h-1.93v5.229c0,0.627,0.293,0.983,0.944,0.983h0.985v2.301H188.134z"/><path fill="#E53212" d="M204.259,135.827c-0.607,0.606-1.594,0.982-2.663,0.982c-1.111,0-1.93-0.292-2.643-1.088v4.957h-2.727 v-14.89h2.643v1.023c0.755-0.837,1.573-1.15,2.727-1.15c1.069,0,2.056,0.377,2.663,0.982c1.091,1.088,1.112,2.949,1.112,4.581 C205.371,132.856,205.35,134.739,204.259,135.827z M200.799,128.11c-1.636,0-1.846,1.338-1.846,3.115 c0,1.778,0.21,3.138,1.846,3.138s1.845-1.359,1.845-3.138C202.644,129.448,202.435,128.11,200.799,128.11z"/><path fill="#E53212" d="M215.143,135.471c-0.671,0.711-1.782,1.339-3.397,1.339s-2.705-0.628-3.377-1.339 c-0.984-1.023-1.236-2.258-1.236-4.245c0-1.967,0.252-3.199,1.236-4.225c0.672-0.711,1.762-1.339,3.377-1.339 s2.727,0.628,3.397,1.339c0.986,1.025,1.237,2.258,1.237,4.225C216.38,133.213,216.129,134.447,215.143,135.471z M213.024,128.591 c-0.314-0.313-0.734-0.48-1.279-0.48s-0.943,0.167-1.258,0.48c-0.566,0.564-0.63,1.506-0.63,2.635s0.063,2.091,0.63,2.656 c0.314,0.313,0.713,0.481,1.258,0.481s0.965-0.169,1.279-0.481c0.565-0.565,0.629-1.527,0.629-2.656 S213.59,129.155,213.024,128.591z"/><path fill="#E53212" d="M224.893,136.685v-1.005c-0.713,0.754-1.72,1.13-2.726,1.13c-1.092,0-1.972-0.355-2.58-0.963 c-0.881-0.878-1.112-1.902-1.112-3.094v-6.964h2.727v6.587c0,1.484,0.944,1.987,1.805,1.987c0.859,0,1.824-0.503,1.824-1.987 v-6.587h2.726v10.896H224.893z"/><path fill="#E53212" d="M236.194,128.758c-0.419-0.419-0.775-0.647-1.447-0.647c-0.838,0-1.761,0.627-1.761,2.007v6.567h-2.727 v-10.896h2.663v1.045c0.525-0.627,1.573-1.172,2.748-1.172c1.069,0,1.824,0.272,2.579,1.025L236.194,128.758z"/><path fill="#E53212" d="M247.371,136.685c-2.224,0-3.166-1.569-3.166-3.117v-5.396h-1.154v-2.07h1.154v-3.221h2.725v3.221h1.93 v2.07h-1.93v5.229c0,0.627,0.294,0.983,0.944,0.983h0.985v2.301H247.371z"/><path fill="#E53212" d="M258.464,135.471c-0.671,0.711-1.782,1.339-3.397,1.339c-1.614,0-2.705-0.628-3.377-1.339 c-0.984-1.023-1.237-2.258-1.237-4.245c0-1.967,0.253-3.199,1.237-4.225c0.672-0.711,1.763-1.339,3.377-1.339 c1.615,0,2.727,0.628,3.397,1.339c0.986,1.025,1.237,2.258,1.237,4.225C259.701,133.213,259.45,134.447,258.464,135.471z M256.347,128.591c-0.315-0.313-0.734-0.48-1.28-0.48c-0.545,0-0.943,0.167-1.258,0.48c-0.566,0.564-0.63,1.506-0.63,2.635 s0.063,2.091,0.63,2.656c0.314,0.313,0.713,0.481,1.258,0.481c0.546,0,0.965-0.169,1.28-0.481 c0.564-0.565,0.628-1.527,0.628-2.656S256.911,129.155,256.347,128.591z"/><path fill="#E53212" d="M268.214,136.685v-1.005c-0.712,0.754-1.719,1.13-2.726,1.13c-1.091,0-1.971-0.355-2.579-0.963 c-0.881-0.878-1.112-1.902-1.112-3.094v-6.964h2.727v6.587c0,1.484,0.944,1.987,1.805,1.987c0.858,0,1.824-0.503,1.824-1.987 v-6.587h2.727v10.896H268.214z"/><path fill="#E53212" d="M277.168,136.81c-1.719,0-3.272-0.188-4.655-1.568l1.782-1.777c0.902,0.899,2.076,1.024,2.915,1.024 c0.944,0,1.93-0.314,1.93-1.13c0-0.544-0.293-0.92-1.153-1.004l-1.72-0.167c-1.972-0.189-3.188-1.045-3.188-3.054 c0-2.258,1.992-3.472,4.214-3.472c1.7,0,3.126,0.294,4.174,1.275l-1.677,1.694c-0.63-0.563-1.595-0.731-2.538-0.731 c-1.09,0-1.552,0.502-1.552,1.046c0,0.396,0.168,0.857,1.132,0.94l1.721,0.168c2.159,0.209,3.25,1.358,3.25,3.199 C281.803,135.659,279.748,136.81,277.168,136.81z"/></g><polygon fill="#E53212" points="120.589 43.326 116.218 43.326 107.914 26.004 105.485 43.326 100.333 43.326 104.18 15.611 108.552 15.611 116.897 32.971 119.284 15.611 124.436 15.611"/><g><path fill="#E53212" d="M141.506,43.326h-4.644l0.229-1.946c-1.2,1.401-3.064,2.18-5.171,2.18c-2.381,0-5.33-1.596-5.583-5.644 c-0.048-0.778,0.059-1.558,0.135-2.219l1.746-12.651h4.839l-1.726,12.339c-0.051,0.429-0.1,0.895-0.073,1.324 c0.11,1.751,1.329,2.53,2.578,2.53c1.405,0,3.43-0.701,3.894-3.893l1.728-12.3h4.839L141.506,43.326z"/><path fill="#E53212" d="M175.254,30.675l-1.745,12.65h-4.841l1.688-12.339c0.052-0.428,0.098-0.934,0.073-1.324 c-0.109-1.752-1.368-2.53-2.578-2.53c-1.366,0-3.468,0.7-3.894,3.893l-1.689,12.3h-4.839l1.687-12.339 c0.052-0.428,0.099-0.934,0.073-1.324c-0.11-1.752-1.329-2.53-2.539-2.53c-1.365,0-3.508,0.7-3.932,3.893l-1.69,12.3h-4.838 l2.79-20.28h4.644l-0.269,1.946c1.241-1.362,3.103-2.179,5.211-2.179c1.443,0,3.358,0.662,4.572,2.608 c1.313-1.479,2.96-2.608,6.199-2.608c2.732,0,5.771,1.791,6.01,5.605C175.403,29.313,175.332,30.053,175.254,30.675"/><path fill="#E53212" d="M195.053,34.645h-12.177c-0.048,0.468-0.095,0.973-0.066,1.44c0.125,1.985,1.345,3.386,3.686,3.386 c1.951,0,3.391-0.7,4.711-2.063l2.736,3.192c-1.986,1.946-4.693,2.958-7.737,2.958c-3.512,0-7.645-1.791-7.978-7.123 c-0.428-6.812,2.464-13.624,9.489-13.624c4.293,0,7.397,2.842,7.674,7.24C195.476,31.414,195.307,33.088,195.053,34.645 M187.691,26.783c-2.068,0-3.702,1.323-4.394,4.631h7.455c0.051-0.427,0.059-0.934,0.032-1.362 C190.651,27.911,189.409,26.783,187.691,26.783 M190.464,19.932h-3.902l3.926-6.5h4.645L190.464,19.932z"/><path fill="#E53212" d="M210.352,28.417c-0.549-0.662-1.249-1.246-2.303-1.246c-1.912,0-3.532,1.557-3.854,3.892l-1.692,12.262 h-4.84l2.79-20.28h4.684l-0.305,1.985c1.046-1.362,2.905-2.218,5.013-2.218c1.952,0,3.278,0.623,4.452,1.907L210.352,28.417z"/><path fill="#E53212" d="M218.582,43.326h-4.84l2.712-19.657h4.839L218.582,43.326z M221.864,19.698h-4.955l0.528-4.009h4.996 L221.864,19.698z"/><path fill="#E53212" d="M259.208,43.326h-4.645l0.229-1.946c-1.2,1.401-3.063,2.18-5.171,2.18c-2.38,0-5.329-1.596-5.582-5.644 c-0.05-0.778,0.059-1.558,0.134-2.219l1.746-12.651h4.839l-1.726,12.339c-0.052,0.429-0.1,0.895-0.074,1.324 c0.11,1.751,1.329,2.53,2.579,2.53c1.404,0,3.429-0.701,3.894-3.893l1.728-12.3h4.84L259.208,43.326z"/><path fill="#E53212" d="M280.988,34.645h-12.177c-0.05,0.468-0.097,0.973-0.066,1.441c0.124,1.985,1.343,3.386,3.685,3.386 c1.952,0,3.392-0.7,4.711-2.063l2.736,3.191c-1.985,1.946-4.693,2.958-7.737,2.958c-3.513,0-7.646-1.791-7.979-7.123 c-0.426-6.812,2.466-13.624,9.491-13.624c4.292,0,7.397,2.841,7.673,7.239C281.41,31.415,281.242,33.088,280.988,34.645 M273.627,26.783c-2.069,0-3.703,1.324-4.394,4.632h7.454c0.052-0.428,0.059-0.934,0.032-1.363 C276.585,27.912,275.344,26.783,273.627,26.783"/><path fill="#E53212" d="M234.041,41.535l-1.218,9.225h0.088l4.905-1.124l3.654-26.59h-4.683l-0.301,2.063 c-0.991-1.479-2.525-2.296-4.827-2.296c-1.99,0-3.828,0.584-5.072,1.907c-1.756,1.868-2.285,4.632-2.749,8.447 c-0.264,2.024-0.359,3.62-0.306,4.476c0.259,4.126,2.868,5.917,5.912,5.917C231.631,43.56,233.172,42.625,234.041,41.535 M228.679,33.167c0.509-3.698,1.261-6.034,4.149-6.034c2.107,0,2.52,1.596,2.596,2.803c0.053,0.856-0.1,2.18-0.228,3.231 c-0.511,3.698-1.26,6.072-4.148,6.072c-2.106,0-2.52-1.596-2.595-2.802C228.399,35.58,228.549,34.217,228.679,33.167"/></g></g><deepl-alert/><deepl-alert/><deepl-alert/><deepl-alert/></svg>