<svg xmlns:xlink="http://www.w3.org/1999/xlink" xmlns:dc="http://purl.org/dc/elements/1.1/" xmlns:cc="http://creativecommons.org/ns#" xmlns:rdf="http://www.w3.org/1999/02/22-rdf-syntax-ns#" xmlns:svg="http://www.w3.org/2000/svg" xmlns="http://www.w3.org/2000/svg" version="1.1" width="300" height="107.7441634585699" id="svg16620">
  <defs id="defs16622"/>
  <metadata id="metadata16625">
    <rdf:RDF>
      <cc:Work rdf:about="">
        <dc:format>image/svg+xml</dc:format>
        <dc:type rdf:resource="http://purl.org/dc/dcmitype/StillImage"/>
        <dc:title/>
      </cc:Work>
    </rdf:RDF>
  </metadata>
  <g transform="translate(11.481209,-402.53721)" id="layer1">
    <path d="m 628.93815,606.85508 c -0.45929,-8.89792 -6.75323,-16.26615 -15.50325,-16.26615 -9.20153,0 -15.34367,6.59365 -16.87726,16.26615 l 32.38051,0 z m -32.38051,14.58077 c 0.4593,10.8986 6.74935,18.10335 17.80364,18.10335 6.28616,0 12.4244,-2.91538 14.88437,-8.74223 l 24.39729,0 c -4.75257,18.41473 -21.78941,26.39017 -39.59694,26.39017 -25.93477,0 -43.57882,-15.64727 -43.57882,-42.35662 0,-24.3934 19.48903,-41.89343 42.96772,-41.89343 28.55043,0 42.8237,21.48581 41.58983,48.49876 l -58.46709,0 z m -72.91473,-65.61111 0,19.41118 -13.20288,0 0,16.88504 13.20288,0 0,35.45158 c 0,21.63761 5.67894,28.07945 27.93154,28.07945 8.80841,0 21.42353,-2.69351 24.63862,-3.4097 -4.75257,-4.57741 -8.48145,-10.16683 -10.99202,-16.58922 -0.63834,0.0467 -1.56083,0.12066 -2.11354,0.16348 -1.37401,0.0817 -2.72465,0.19851 -4.01692,0.19851 -5.67505,0 -9.35722,-1.38179 -9.35722,-7.67962 l -0.004,0 0,-36.21448 16.11435,0 0,-16.88504 -16.11435,0 0,-19.67976 c -9.06141,0.67727 -17.80753,0.77458 -26.08657,0.26858 m -23.316,99.06902 -25.32367,0 0,-10.90249 -0.3075,0 c -4.91605,8.13503 -15.03228,13.19509 -24.24159,13.19509 -22.8676,0 -29.46514,-13.19509 -29.46514,-34.0659 l 0,-47.88377 26.09046,0 0,46.19838 c 0,10.58332 4.59688,14.26938 12.88759,14.26938 5.67506,0 14.27327,-3.68606 14.27327,-17.80364 l 0,-42.66412 26.08658,0 0,79.65707 z M 370.56003,637.24504 c 12.12858,0 15.96255,-11.97678 15.96255,-22.10469 0,-10.12791 -3.83397,-22.2526 -15.96255,-22.2526 -12.1169,0 -15.80296,12.12469 -15.80296,22.2526 0,10.12791 3.68606,22.10469 15.80296,22.10469 m 0,-64.30561 c 24.71646,0 42.0608,18.26293 42.0608,42.20092 0,23.94189 -17.34434,42.04523 -42.0608,42.04523 -24.70478,0 -41.89732,-18.10334 -41.89732,-42.04523 0,-23.93799 17.19254,-42.20092 41.89732,-42.20092 m -136.40332,33.91565 c -0.45541,-8.89792 -6.74157,-16.26615 -15.49158,-16.26615 -9.2171,0 -15.35145,6.59365 -16.88504,16.26615 l 32.37662,0 z m -32.37662,14.58077 c 0.45929,10.8986 6.74934,18.10335 17.79585,18.10335 6.29394,0 12.43219,-2.91538 14.89215,-8.74223 l 24.39731,0 c -4.75646,18.41473 -21.79332,26.39017 -39.59306,26.39017 -25.93477,0 -43.58272,-15.64727 -43.58272,-42.35662 0,-24.3934 19.48514,-41.89343 42.97551,-41.89343 28.53877,0 42.81593,21.48581 41.58595,48.49876 l -58.47099,0 z m -31.28489,14.36474 c -0.0817,0.004 -0.15959,0.008 -0.24522,0.0156 -1.36622,0.0817 -2.72076,0.19851 -4.01302,0.19851 -5.67895,0 -9.36501,-1.38179 -9.36501,-7.67962 l 0,-36.21448 15.12959,0 c 0.31528,-0.64224 0.64224,-1.27669 0.98866,-1.89947 l 0,-14.98557 -16.11825,0 0,-24.0898 -26.08268,0 0,24.0898 -17.83867,0 c 3.55372,4.07529 6.364,9.54405 7.7925,16.88504 l 10.04617,0 0,35.45158 c 0,21.63761 5.67116,28.08335 27.93155,28.08335 8.83954,0 20.31031,-2.3938 23.15563,-3.01269 -4.92773,-4.62022 -8.78894,-10.2836 -11.38125,-16.84222 m -137.03087,-60.5635 25.323669,0 0,10.90249 0.303604,0 c 4.764244,-8.13892 15.503255,-13.20288 25.012281,-13.20288 26.557546,0 28.702236,19.33723 28.702236,30.84693 l 0,51.11053 -26.086572,0 0,-38.53044 c 0,-10.8947 1.226092,-21.94121 -13.047178,-21.94121 -9.816523,0 -14.117576,8.29072 -14.117576,17.02906 l 0,43.44259 -26.090464,0 0,-79.65707 z m -39.9455387,0.002 26.0865707,0 0,79.65707 -26.0865707,0 0,-79.65707 z m 26.0865707,-9.9761 -26.0865707,0 0,-19.95223 26.0865707,0 0,19.95223 z m 249.476078,9.97455 25.31977,0 0,13.96577 0.3075,0 c 3.83786,-10.1318 12.73579,-15.49936 23.94577,-15.49936 2.00068,0 4.14536,0.15569 6.13825,0.61499 l 0,23.78619 c -3.38246,-0.92249 -6.44963,-1.53359 -9.97611,-1.53359 -12.89148,0 -19.64472,8.89793 -19.64472,18.87793 l 0,39.44514 -26.09046,0 0,-79.65707 z" id="path2588" style="fill:#231f20;fill-opacity:1;fill-rule:nonzero;stroke:none"/>
    <path d="m 664.96895,560.46987 c -2.88423,-5.91249 -8.13502,-13.50647 -17.52338,-19.6019 -10.81297,-7.03349 -22.4083,-7.85089 -30.02175,-7.36434 -5.15348,0.32306 -5.00946,0.61888 -0.21408,-1.38957 7.09966,-2.98544 17.09913,-8.99524 23.08168,-20.44655 5.77625,-11.06986 6.20441,-21.40406 5.52714,-28.16898 -0.49043,-4.97832 -0.94195,-4.74867 1.21831,-0.0545 2.8492,6.2122 8.36467,14.89994 18.58211,21.7933 11.01537,7.41104 22.77807,7.80806 30.23193,7.00235 4.70975,-0.50601 4.59687,-0.78626 0.21797,1.23387 -6.74934,3.09443 -16.56587,9.30663 -22.8131,20.83189 -5.4493,10.06564 -6.53137,19.46568 -6.34065,26.09436 0.17127,5.91249 0.72398,5.57385 -1.94618,0.0701 m 27.29988,-69.84215 c 11.86779,-14.99335 16.90061,-30.65619 12.80974,-44.84383 -10.33809,-35.93034 -75.04073,-48.82961 -144.5154,-28.83069 -69.46688,20.00282 -117.38957,65.3332 -107.05147,101.25186 5.30139,18.4342 24.92665,30.80411 52.17314,35.77076 6.03705,1.10543 6.62479,-0.70841 0.96531,-2.50279 -16.40239,-5.1924 -28.65942,-13.85679 -32.31435,-26.54587 -8.81229,-30.60948 32.87095,-69.40071 93.9031,-86.96302 61.01658,-17.57399 117.62311,-7.00235 126.43151,23.59547 2.54171,8.79672 0.42038,17.94376 -4.72921,27.41775 -2.71686,4.99779 -1.31562,6.2628 2.32763,1.65036" id="path2596" style="fill:#00acee;fill-opacity:1;fill-rule:nonzero;stroke:none"/>
  </g>
<deepl-alert xmlns=""/><deepl-alert xmlns=""/><deepl-alert xmlns=""/></svg>